<?xml version="1.0" encoding="utf-8"?>
<!-- Generator: Adobe Illustrator 19.1.0, SVG Export Plug-In . SVG Version: 6.00 Build 0)  -->
<svg version="1.1"
	 id="svg2" sodipodi:docname="word.svg" inkscape:version="0.48.3.1 r9886" xmlns:dc="http://purl.org/dc/elements/1.1/" xmlns:sodipodi="http://sodipodi.sourceforge.net/DTD/sodipodi-0.dtd" xmlns:rdf="http://www.w3.org/1999/02/22-rdf-syntax-ns#" xmlns:cc="http://creativecommons.org/ns#" xmlns:svg="http://www.w3.org/2000/svg" xmlns:inkscape="http://www.inkscape.org/namespaces/inkscape"
	 xmlns="http://www.w3.org/2000/svg" xmlns:xlink="http://www.w3.org/1999/xlink" x="0px" y="0px" viewBox="5 -3.5 110 107.5"
	 style="enable-background:new 5 -3.5 110 107.5;" xml:space="preserve">
<style type="text/css">
	.st0{fill:#FFFFFF;}
</style>
<sodipodi:namedview  fit-margin-bottom="0" fit-margin-right="0" inkscape:current-layer="svg2" inkscape:window-maximized="1" inkscape:window-y="0" inkscape:window-x="0" inkscape:window-height="960" inkscape:pageshadow="2" inkscape:pageopacity="0" inkscape:window-width="1280" inkscape:cy="53.75" fit-margin-top="0" inkscape:cx="344.89442" guidetolerance="10" gridtolerance="10" objecttolerance="10" fit-margin-left="0" showgrid="false" inkscape:zoom="1.0905983" borderopacity="1" pagecolor="#ffffff" bordercolor="#666666" id="namedview122">
	</sodipodi:namedview>
<g>
	<path class="st0" d="M115,79.1c0-21.7,0-43.4,0-65.1c-0.1-2.1,0.1-4.5-1.2-6.3c-1.8-1.3-4.2-1.1-6.3-1.2c-12.5,0.1-25,0-37.5,0
		c0-3.3,0-6.7,0-10h-7.4C43.4-0.1,24.2,3.2,5,6.5C5,35.7,5,64.8,5,94c19.1,3.3,38.2,6.5,57.2,10H70c0-3.8,0-7.5,0-11.3
		c13,0,25.9,0,38.9,0c2.1-0.1,5.2-0.2,5.7-2.8C115.3,86.4,114.9,82.7,115,79.1z M41.8,69.8c-2.1-5.2-4.7-10.3-6.2-15.7
		c-1.7,5.1-4.1,9.9-6.1,14.8c-2.7,0-5.5-0.2-8.2-0.3c3.2-6.3,6.3-12.6,9.6-18.9c-2.8-6.4-5.9-12.8-8.8-19.2c2.8-0.2,5.5-0.3,8.3-0.5
		c1.9,4.9,3.9,9.7,5.4,14.7c1.7-5.3,4.1-10.3,6.2-15.4c2.8-0.2,5.7-0.4,8.5-0.5c-3.3,6.8-6.7,13.7-10.1,20.5c3.4,7,7,14,10.4,21
		C47.8,70.2,44.8,70,41.8,69.8z M111.2,89c-13.8,0-27.5,0-41.3,0c0-2.5,0-5,0-7.5c3.3,0,6.7,0,10,0c0-2.9,0-5.8,0-8.8
		c-3.3,0-6.7,0-10,0c0-1.7,0-3.3,0-5c3.3,0,6.7,0,10,0c0-2.9,0-5.8,0-8.8c-3.3,0-6.7,0-10,0c0-1.7,0-3.3,0-5c3.3,0,6.7,0,10,0
		c0-2.9,0-5.8,0-8.8c-3.3,0-6.7,0-10,0c0-1.7,0-3.3,0-5c3.3,0,6.7,0,10,0c0-2.9,0-5.8,0-8.8c-3.3,0-6.7,0-10,0c0-1.7,0-3.3,0-5
		c3.3,0,6.7,0,10,0c0-2.9,0-5.8,0-8.8c-3.3,0-6.7,0-10,0c0-2.5,0-5,0-7.5c13.8,0,27.5,0,41.3,0C111.2,36.5,111.2,62.8,111.2,89z"/>
	<path id="path58_1_" inkscape:connector-curvature="0" class="st0" d="M85,17.8c5.8,0,11.7,0,17.5,0c0,2.9,0,5.8,0,8.8
		c-5.8,0-11.7,0-17.5,0C85,23.6,85,20.7,85,17.8z"/>
	<path id="path90_1_" inkscape:connector-curvature="0" class="st0" d="M85,31.5c5.8,0,11.7,0,17.5,0c0,2.9,0,5.8,0,8.8
		c-5.8,0-11.7,0-17.5,0C85,37.3,85,34.4,85,31.5z"/>
	<path id="path108_1_" inkscape:connector-curvature="0" class="st0" d="M85,45.3c5.8,0,11.7,0,17.5,0c0,2.9,0,5.8,0,8.8
		c-5.8,0-11.7,0-17.5,0C85,51.1,85,48.2,85,45.3z"/>
	<path id="path114_1_" inkscape:connector-curvature="0" class="st0" d="M85,59c5.8,0,11.7,0,17.5,0c0,2.9,0,5.8,0,8.8
		c-5.8,0-11.7,0-17.5,0C85,64.8,85,61.9,85,59z"/>
	<path id="path120_1_" inkscape:connector-curvature="0" class="st0" d="M85,72.8c5.8,0,11.7,0,17.5,0c0,2.9,0,5.8,0,8.8
		c-5.8,0-11.7,0-17.5,0C85,78.6,85,75.7,85,72.8z"/>
</g>
</svg>
