<?xml version="1.0" encoding="utf-8"?>
<!-- Generator: Adobe Illustrator 19.1.0, SVG Export Plug-In . SVG Version: 6.00 Build 0)  -->
<svg version="1.1" xmlns="http://www.w3.org/2000/svg" xmlns:xlink="http://www.w3.org/1999/xlink" x="0px" y="0px"
	 viewBox="0 0 50 50" style="enable-background:new 0 0 50 50;" xml:space="preserve">
<style type="text/css">
	.st0{display:none;}
	.st1{display:inline;}
	.st2{fill:#0000FF;}
	.st3{fill:#009245;}
	.st4{fill:#3FA9F5;}
	.st5{fill:#7AC943;}
	.st6{fill:#46B649;}
	.st7{fill:#FF0000;}
	.st8{fill:#0048B9;}
	.st9{fill:#000077;}
	.st10{fill:#FFFFFF;}
	.st11{fill:#8D1844;}
	.st12{fill:none;}
	.st13{fill:#0000E2;}
	.st14{fill:#00FF00;}
	.st15{fill:#00B8FF;}
	.st16{fill:#006837;}
	.st17{fill:#C80000;}
	.st18{fill:#964B00;}
	.st19{fill:#8CC63F;}
	.st20{fill:#4D4D4D;}
	.st21{fill:#3366FF;}
	.st22{fill:#FF8000;}
	.st23{fill:none;stroke:#000000;stroke-width:2;stroke-miterlimit:10;}
	.st24{fill:none;stroke:#0048B9;stroke-width:3;stroke-miterlimit:10;}
	.st25{fill:none;stroke:#FFFFFF;stroke-width:3;stroke-miterlimit:10;}
	.st26{fill:#454545;}
	.st27{fill:#727272;}
	.st28{fill:#FCB615;stroke:#000000;stroke-miterlimit:10;}
	.st29{fill:#46B649;stroke:#000000;stroke-miterlimit:10;}
	.st30{fill:#FF0000;stroke:#000000;stroke-miterlimit:10;}
	.st31{fill:#3366FF;stroke:#000000;stroke-miterlimit:10;}
	.st32{fill:#FCB615;}
	.st33{fill:#FFFF00;}
	.st34{fill:#919191;}
	.st35{fill:#FFFBCA;}
	.st36{fill:#BA6728;}
	.st37{fill:#DBEDF3;}
	.st38{fill:#A7B5EF;}
	.st39{fill:none;stroke:#000000;stroke-width:4;stroke-miterlimit:10;}
	.st40{fill:#FFFFFF;stroke:#000000;stroke-width:4;stroke-miterlimit:10;}
</style>
<g id="Scrap">
</g>
<g id="Icons">
</g>
<g id="Layer_3">
	<g>
		<path class="st7" d="M24.9,47.9h0.6c12.6,0,23.2-9.6,23.2-22.3v0H24.9V47.9z"/>
		<path class="st6" d="M25.6,2.2h-0.3C12.6,2.2,1.8,12.5,1.8,25.1V26h23.8V2.2z"/>
		<path class="st32" d="M1.5,25v-0.6C1.5,37.1,12.9,48,25.6,48h-0.1V25H1.5z"/>
		<path class="st8" d="M48.5,26v-1.4C48.5,11.9,38.1,2,25.4,2h-1.9v24H48.5z"/>
	</g>
	<g>
		<line class="st39" x1="25.5" y1="3" x2="25.5" y2="48"/>
		<line class="st39" x1="1.5" y1="27" x2="47.5" y2="27"/>
	</g>
	<g>
		<g>
			<path d="M25.7,3c11.9,0,21.5,9.7,21.5,21.5v1c0,11.9-9.7,21.5-21.5,21.5h-1C12.9,47,3.2,37.3,3.2,25.5v-1C3.2,12.7,12.9,3,24.7,3
				H25.7 M25.7,0h-1C11.3,0,0.2,11,0.2,24.5v1C0.2,39,11.3,50,24.7,50h1c13.5,0,24.5-11,24.5-24.5v-1C50.2,11,39.2,0,25.7,0L25.7,0z
				"/>
		</g>
	</g>
	<g>
		<path class="st40" d="M31.5,31.7H19.6l-3.5,6.9H8.6L26.8,5.2h6.3l6.5,33.4h-7L31.5,31.7z M22.4,26.2h8.2l-1.9-12.4L22.4,26.2z"/>
	</g>
	<g>
		<path class="st10" d="M31.5,31.7H19.6l-3.5,6.9H8.6L26.8,5.2h6.3l6.5,33.4h-7L31.5,31.7z M22.4,26.2h8.2l-1.9-12.4L22.4,26.2z"/>
	</g>
</g>
</svg>
