<?xml version="1.0" encoding="utf-8"?>
<!-- Generator: Adobe Illustrator 19.1.0, SVG Export Plug-In . SVG Version: 6.00 Build 0)  -->
<svg version="1.1" xmlns="http://www.w3.org/2000/svg" xmlns:xlink="http://www.w3.org/1999/xlink" x="0px" y="0px"
	 viewBox="0 0 32 32" style="enable-background:new 0 0 32 32;" xml:space="preserve">
<style type="text/css">
	.st0{display:none;}
	.st1{display:inline;}
	.st2{fill:#0000FF;}
	.st3{fill:#009245;}
	.st4{fill:#3FA9F5;}
	.st5{fill:#7AC943;}
	.st6{fill:#FFFFFF;}
	.st7{fill:#46B649;}
	.st8{fill:#FF0000;}
	.st9{fill:#0048B9;}
	.st10{fill:#000077;}
	.st11{fill:none;}
	.st12{fill:#0000E2;}
	.st13{fill:#00FF00;}
	.st14{fill:#00B8FF;}
	.st15{fill:#006837;}
	.st16{fill:#C80000;}
	.st17{fill:#964B00;}
	.st18{fill:#8CC63F;}
	.st19{fill:#666666;}
	.st20{fill:#B4B4B4;}
	.st21{fill:#3366FF;}
	.st22{fill:#FF8000;}
	.st23{fill:#96632F;}
	.st24{fill:none;stroke:#000000;stroke-width:2;stroke-miterlimit:10;}
	.st25{fill:none;stroke:#FFFFFF;stroke-width:3;stroke-miterlimit:10;}
	.st26{fill:#454545;}
	.st27{fill:#727272;}
	.st28{fill:#FCB615;stroke:#000000;stroke-miterlimit:10;}
	.st29{fill:#46B649;stroke:#000000;stroke-miterlimit:10;}
	.st30{fill:#FF0000;stroke:#000000;stroke-miterlimit:10;}
	.st31{fill:#3366FF;stroke:#000000;stroke-miterlimit:10;}
	.st32{fill:#FCB615;}
	.st33{fill:#FFFF00;}
	.st34{fill:#919191;}
	.st35{fill:#FFFBCA;}
	.st36{fill:#BA6728;}
	.st37{fill:#DBEDF3;}
	.st38{fill:#A7B5EF;}
	.st39{fill:none;stroke:#000000;stroke-width:3;stroke-miterlimit:10;}
	.st40{fill:#42210B;}
	.st41{fill:#FCEE21;}
	.st42{fill:none;stroke:#000000;stroke-width:4;stroke-miterlimit:10;}
	.st43{fill:#FFFFFF;stroke:#000000;stroke-width:4;stroke-miterlimit:10;}
	.st44{fill:#A7A7A7;}
</style>
<g id="Scrap">
</g>
<g id="Icons">
	<g>
		<path class="st22" d="M15.7,30.8c-8,0-14.5-6.5-14.5-14.5v-0.6c0-8,6.5-14.5,14.5-14.5h0.6c8,0,14.5,6.5,14.5,14.5v0.6
			c0,8-6.5,14.5-14.5,14.5H15.7z"/>
		<g>
			<path d="M16.3,2.2c7.4,0,13.5,6,13.5,13.5v0.6c0,7.4-6,13.5-13.5,13.5h-0.6c-7.4,0-13.5-6-13.5-13.5v-0.6c0-7.4,6-13.5,13.5-13.5
				H16.3 M16.3,0.2h-0.6c-8.5,0-15.5,7-15.5,15.5v0.6c0,8.5,7,15.5,15.5,15.5h0.6c8.5,0,15.5-7,15.5-15.5v-0.6
				C31.8,7.2,24.8,0.2,16.3,0.2L16.3,0.2z"/>
		</g>
	</g>
	<g>
		<path class="st6" d="M10,18.1H6.1l-0.7,2.2H3.1L7,9.6h2l4,10.6h-2.3L10,18.1z M6.7,16.3h2.7l-1.3-4L6.7,16.3z"/>
		<path class="st6" d="M15.5,18.5h4.7v1.8h-6.9V9.6h2.2V18.5z"/>
		<path class="st6" d="M26.2,17.5c0-0.4-0.1-0.7-0.4-1c-0.3-0.2-0.8-0.5-1.6-0.7s-1.4-0.5-1.8-0.7c-1.2-0.7-1.8-1.5-1.8-2.6
			c0-0.6,0.2-1.1,0.5-1.5c0.3-0.5,0.8-0.8,1.4-1.1c0.6-0.3,1.3-0.4,2-0.4c0.8,0,1.4,0.1,2,0.4s1.1,0.7,1.4,1.2
			c0.3,0.5,0.5,1.1,0.5,1.7h-2.2c0-0.5-0.2-0.9-0.5-1.1c-0.3-0.3-0.7-0.4-1.3-0.4c-0.5,0-1,0.1-1.3,0.3c-0.3,0.2-0.4,0.5-0.4,0.9
			c0,0.3,0.2,0.6,0.5,0.9c0.3,0.2,0.9,0.5,1.5,0.7c1.2,0.4,2.2,0.8,2.7,1.4c0.6,0.6,0.9,1.2,0.9,2.1c0,0.9-0.3,1.6-1,2.2
			c-0.7,0.5-1.6,0.8-2.8,0.8c-0.8,0-1.6-0.1-2.2-0.4s-1.2-0.7-1.5-1.2c-0.4-0.5-0.5-1.1-0.5-1.8h2.2c0,1.2,0.7,1.8,2.1,1.8
			c0.5,0,0.9-0.1,1.2-0.3C26,18.2,26.2,17.9,26.2,17.5z"/>
	</g>
</g>
<g id="Layer_3">
</g>
</svg>
