<?xml version="1.0" encoding="utf-8"?>
<!-- Generator: Adobe Illustrator 19.1.0, SVG Export Plug-In . SVG Version: 6.00 Build 0)  -->
<svg version="1.1" xmlns="http://www.w3.org/2000/svg" xmlns:xlink="http://www.w3.org/1999/xlink" x="0px" y="0px"
	 viewBox="0 0 50 50" style="enable-background:new 0 0 50 50;" xml:space="preserve">
<style type="text/css">
	.st0{display:none;}
	.st1{display:inline;}
	.st2{fill:#0000FF;}
	.st3{fill:#009245;}
	.st4{fill:#3FA9F5;}
	.st5{fill:#7AC943;}
	.st6{fill:#FFFFFF;}
	.st7{fill:#46B649;}
	.st8{fill:#FF0000;}
	.st9{fill:#0048B9;}
	.st10{fill:#000077;}
	.st11{fill:none;}
	.st12{fill:#0000E2;}
	.st13{fill:#00FF00;}
	.st14{fill:#00B8FF;}
	.st15{fill:#006837;}
	.st16{fill:#C80000;}
	.st17{fill:#964B00;}
	.st18{fill:#8CC63F;}
	.st19{fill:#666666;}
	.st20{fill:#B4B4B4;}
	.st21{fill:#3366FF;}
	.st22{fill:#FF8000;}
	.st23{fill:#96632F;}
	.st24{fill:none;stroke:#000000;stroke-width:2;stroke-miterlimit:10;}
	.st25{fill:none;stroke:#FFFFFF;stroke-width:3;stroke-miterlimit:10;}
	.st26{fill:#454545;}
	.st27{fill:#727272;}
	.st28{fill:#FCB615;stroke:#000000;stroke-miterlimit:10;}
	.st29{fill:#46B649;stroke:#000000;stroke-miterlimit:10;}
	.st30{fill:#FF0000;stroke:#000000;stroke-miterlimit:10;}
	.st31{fill:#3366FF;stroke:#000000;stroke-miterlimit:10;}
	.st32{fill:#FFFFFF;stroke:#000000;stroke-miterlimit:10;}
	.st33{fill:#FCB615;}
	.st34{fill:#FFFF00;}
	.st35{fill:#919191;}
	.st36{fill:#DBEDF3;}
	.st37{fill:#A7B5EF;}
	.st38{fill:none;stroke:#000000;stroke-width:3;stroke-miterlimit:10;}
	.st39{fill:#42210B;}
	.st40{fill:#FCEE21;}
	.st41{fill:#BA6728;}
	.st42{fill:none;stroke:#000000;stroke-width:4;stroke-miterlimit:10;}
	.st43{fill:#FFFFFF;stroke:#000000;stroke-width:4;stroke-miterlimit:10;}
	.st44{fill:#A7A7A7;}
</style>
<g id="Scrap">
</g>
<g id="Icons">
	<polygon class="st6" points="49.4,21.9 42.4,21.9 42.4,8.5 21.3,8.5 21.3,21.9 14.3,21.9 14.3,1.5 49.4,1.5 	"/>
	<polygon class="st6" points="35,10 28,10 28,24 7,24 7,10 0,10 0,31 15,31 15,49 21,49 21,31 35,31 	"/>
	<polygon class="st9" points="47.9,20.4 43.9,20.4 43.9,7 19.8,7 19.8,20.4 15.8,20.4 15.8,3 47.9,3 	"/>
	<polygon class="st9" points="34,12 30,12 30,26 6,26 6,12 2,12 2,30 16,30 16,47 20,47 20,30 34,30 	"/>
</g>
<g id="Layer_3">
</g>
</svg>
