<?xml version="1.0" encoding="utf-8"?>
<!-- Generator: Adobe Illustrator 19.1.0, SVG Export Plug-In . SVG Version: 6.00 Build 0)  -->
<svg version="1.1" xmlns="http://www.w3.org/2000/svg" xmlns:xlink="http://www.w3.org/1999/xlink" x="0px" y="0px"
	 viewBox="0 0 32 32" style="enable-background:new 0 0 32 32;" xml:space="preserve">
<style type="text/css">
	.st0{display:none;}
	.st1{display:inline;}
	.st2{fill:#0000FF;}
	.st3{fill:#009245;}
	.st4{fill:#3FA9F5;}
	.st5{fill:#7AC943;}
	.st6{display:inline;fill:#FFFFFF;stroke:#000000;stroke-width:3;stroke-miterlimit:10;}
	.st7{display:inline;fill:none;stroke:#000000;stroke-width:3;stroke-miterlimit:10;}
	.st8{fill:#964B00;}
	.st9{fill:#0048B9;}
	.st10{fill:#000077;}
	.st11{fill:#FFFFFF;}
	.st12{fill:#8D1844;}
	.st13{fill:none;}
	.st14{fill:#0000E2;}
	.st15{fill:#00FF00;}
	.st16{fill:#00B8FF;}
	.st17{fill:#006837;}
	.st18{fill:#C80000;}
	.st19{fill:#FF0000;}
	.st20{fill:#46B649;}
	.st21{fill:#8CC63F;}
	.st22{fill:#4D4D4D;}
	.st23{fill:#3366FF;}
	.st24{fill:#FF8000;}
	.st25{fill:none;stroke:#000000;stroke-width:2;stroke-miterlimit:10;}
	.st26{fill:none;stroke:#0048B9;stroke-width:3;stroke-miterlimit:10;}
</style>
<g id="Scrap" class="st0">
</g>
<g id="Icons">
	<g>
		<path class="st9" d="M15.5,31c-5.4,0-9.8-6.7-9.8-15s4.4-15,9.8-15s9.8,6.7,9.8,15S20.9,31,15.5,31z"/>
		<path class="st10" d="M15.5,2c4.8,0,8.8,6.4,8.8,14s-4,14-8.8,14s-8.8-6.4-8.8-14S10.7,2,15.5,2 M15.5,0C9.5,0,4.7,7.2,4.7,16
			s4.9,16,10.8,16s10.8-7.2,10.8-16S21.5,0,15.5,0L15.5,0z"/>
	</g>
	<g>
		<path class="st11" d="M16,17.8h-1.9v5h-3.4V8.6h5.6c1.7,0,3,0.4,4,1.1c1,0.7,1.4,1.8,1.4,3.2c0,1-0.2,1.8-0.6,2.5s-1,1.2-1.9,1.6
			l3,5.7v0.1h-3.7L16,17.8z M14.2,15.1h2.2c0.7,0,1.1-0.2,1.5-0.5c0.3-0.3,0.5-0.8,0.5-1.4c0-0.6-0.2-1.1-0.5-1.4s-0.8-0.5-1.5-0.5
			h-2.2V15.1z"/>
	</g>
</g>
</svg>
