<?xml version="1.0" encoding="utf-8"?>
<!-- Generator: Adobe Illustrator 19.1.0, SVG Export Plug-In . SVG Version: 6.00 Build 0)  -->
<svg version="1.1" xmlns="http://www.w3.org/2000/svg" xmlns:xlink="http://www.w3.org/1999/xlink" x="0px" y="0px"
	 viewBox="0 0 50 50" style="enable-background:new 0 0 50 50;" xml:space="preserve">
<style type="text/css">
	.st0{display:none;}
	.st1{display:inline;}
	.st2{fill:#0000FF;}
	.st3{fill:#009245;}
	.st4{fill:#3FA9F5;}
	.st5{fill:#7AC943;}
	.st6{fill:#96632F;}
	.st7{fill:#FFFFFF;}
	.st8{fill:#FCB615;stroke:#000000;stroke-miterlimit:10;}
	.st9{fill:#46B649;stroke:#000000;stroke-miterlimit:10;}
	.st10{fill:#FF0000;stroke:#000000;stroke-miterlimit:10;}
	.st11{fill:#3366FF;stroke:#000000;stroke-miterlimit:10;}
	.st12{fill:#FFFFFF;stroke:#000000;stroke-miterlimit:10;}
	.st13{fill:#DBEDF3;}
	.st14{fill:#A7B5EF;}
	.st15{fill:#46B649;}
	.st16{fill:#FF0000;}
	.st17{fill:#0048B9;}
	.st18{fill:#000077;}
	.st19{fill:#0000E2;}
	.st20{fill:#00FF00;}
	.st21{fill:#00B8FF;}
	.st22{fill:#006837;}
	.st23{fill:#964B00;}
	.st24{fill:#8CC63F;}
	.st25{fill:#666666;}
	.st26{fill:#B4B4B4;}
	.st27{fill:#3366FF;}
	.st28{fill:#FF8000;}
	.st29{fill:none;stroke:#000000;stroke-width:2;stroke-miterlimit:10;}
	.st30{fill:none;stroke:#FFFFFF;stroke-width:3;stroke-miterlimit:10;}
	.st31{fill:#454545;}
	.st32{fill:#727272;}
	.st33{opacity:0.75;}
	.st34{fill:#FCEE21;}
	.st35{fill:#F7931E;}
	.st36{fill:#FFFF00;}
	.st37{fill:#919191;}
	.st38{fill:none;stroke:#000000;stroke-width:3;stroke-miterlimit:10;}
	.st39{fill:#42210B;}
	.st40{fill:#BA6728;}
	.st41{fill:#FCB615;}
	.st42{fill:none;stroke:#000000;stroke-width:4;stroke-miterlimit:10;}
	.st43{fill:#FFFFFF;stroke:#000000;stroke-width:4;stroke-miterlimit:10;}
	.st44{fill:#A7A7A7;}
</style>
<g id="Scrap">
	<g class="st0">
		<g class="st1">
			<path class="st2" d="M50.2,38c-7,0-12.7-5.8-12.7-12.9c0-7.1,5.7-12.9,12.7-12.9S63,18.1,63,25.2C63,32.3,57.3,38,50.2,38z
				 M50.2,16c-5,0-9.1,4.1-9.1,9.2c0,5.1,4.1,9.2,9.1,9.2c5,0,9.1-4.1,9.1-9.2C59.3,20.1,55.2,16,50.2,16z"/>
		</g>
		<g class="st1">
			<path class="st3" d="M60.9,38c-7,0-12.7-5.8-12.7-12.9c0-7.1,5.7-12.9,12.7-12.9s12.7,5.8,12.7,12.9C73.6,32.3,67.9,38,60.9,38z
				 M60.9,16c-5,0-9.1,4.1-9.1,9.2c0,5.1,4.1,9.2,9.1,9.2s9.1-4.1,9.1-9.2C69.9,20.1,65.9,16,60.9,16z"/>
		</g>
		<g class="st1">
			<path class="st4" d="M50.3,34.4c-5,0-9.2-4.1-9.2-9.2c0-5.1,4.1-9.2,9.2-9.2s9.2,4.1,9.2,9.2C59.5,30.3,55.4,34.4,50.3,34.4z
				 M50.3,19.6c-3,0-5.5,2.5-5.5,5.6s2.5,5.6,5.5,5.6c3,0,5.5-2.5,5.5-5.6S53.4,19.6,50.3,19.6z"/>
		</g>
	</g>
</g>
<g id="Icons">
	<g>
		<g class="st33">
			<path class="st7" d="M25,2.5L0.1,46h49.6L25,2.5L25,2.5z"/>
		</g>
		<g>
			<path d="M24.9,14.8L39.8,41H10L24.9,14.8 M24.9,5.6L2.4,45h44.9L24.9,5.6L24.9,5.6z"/>
		</g>
		<g>
			<path class="st35" d="M24.9,19.9l11,19.1H13.9L24.9,19.9 M24.9,8.7L6.3,43h37.1L24.9,8.7L24.9,8.7z"/>
		</g>
	</g>
</g>
<g id="Layer_3">
</g>
</svg>
