<?xml version="1.0" encoding="utf-8"?>
<!-- Generator: Adobe Illustrator 19.1.0, SVG Export Plug-In . SVG Version: 6.00 Build 0)  -->
<svg version="1.1" xmlns="http://www.w3.org/2000/svg" xmlns:xlink="http://www.w3.org/1999/xlink" x="0px" y="0px"
	 viewBox="0 0 32 32" style="enable-background:new 0 0 32 32;" xml:space="preserve">
<style type="text/css">
	.st0{display:none;}
	.st1{display:inline;}
	.st2{fill:#0000FF;}
	.st3{fill:#009245;}
	.st4{fill:#3FA9F5;}
	.st5{fill:#7AC943;}
	.st6{display:inline;fill:#FFFFFF;stroke:#000000;stroke-width:3;stroke-miterlimit:10;}
	.st7{display:inline;fill:none;stroke:#000000;stroke-width:3;stroke-miterlimit:10;}
	.st8{fill:#964B00;}
	.st9{fill:#0048B9;}
	.st10{fill:#000077;}
	.st11{fill:#FFFFFF;}
	.st12{fill:#8D1844;}
	.st13{fill:none;}
	.st14{fill:#0000E2;}
	.st15{fill:#00FF00;}
	.st16{fill:#00B8FF;}
	.st17{fill:#006837;}
	.st18{fill:#C80000;}
	.st19{fill:#FF0000;}
	.st20{fill:#46B649;}
	.st21{fill:#8CC63F;}
	.st22{fill:#4D4D4D;}
	.st23{fill:#3366FF;}
	.st24{fill:#FF8000;}
	.st25{fill:none;stroke:#000000;stroke-width:2;stroke-miterlimit:10;}
	.st26{fill:none;stroke:#0048B9;stroke-width:3;stroke-miterlimit:10;}
</style>
<g id="Scrap" class="st0">
</g>
<g id="Icons">
	<g>
		<path class="st24" d="M15.7,30.3c-7.7,0-14-6.3-14-14v-0.6c0-7.7,6.3-14,14-14h0.6c7.7,0,14,6.3,14,14v0.6c0,7.7-6.3,14-14,14
			H15.7z"/>
		<g>
			<path d="M16.3,3.2c6.9,0,12.5,5.6,12.5,12.5v0.6c0,6.9-5.6,12.5-12.5,12.5h-0.6c-6.9,0-12.5-5.6-12.5-12.5v-0.6
				c0-6.9,5.6-12.5,12.5-12.5H16.3 M16.3,0.2h-0.6c-8.5,0-15.5,7-15.5,15.5v0.6c0,8.5,7,15.5,15.5,15.5h0.6c8.5,0,15.5-7,15.5-15.5
				v-0.6C31.8,7.2,24.8,0.2,16.3,0.2L16.3,0.2z"/>
		</g>
	</g>
	<g>
		<path class="st11" d="M16.3,11.3h-3.8v10.4H9.4V11.3H5.6V8.9h10.7V11.3z"/>
		<path class="st11" d="M24.1,18.3c0-0.5-0.2-0.8-0.5-1.1s-0.9-0.5-1.7-0.8s-1.5-0.5-2-0.8c-1.7-0.8-2.5-1.9-2.5-3.4
			c0-0.7,0.2-1.3,0.6-1.9s1-1,1.8-1.3s1.6-0.5,2.5-0.5c0.9,0,1.7,0.2,2.5,0.5s1.3,0.8,1.7,1.4s0.6,1.3,0.6,2.1h-3.1
			c0-0.5-0.2-0.9-0.5-1.2s-0.8-0.4-1.3-0.4c-0.6,0-1,0.1-1.3,0.4s-0.5,0.6-0.5,0.9c0,0.3,0.2,0.6,0.5,0.9s1,0.5,1.9,0.8
			s1.6,0.6,2.2,0.9c1.4,0.8,2.1,1.9,2.1,3.3c0,1.1-0.4,2-1.3,2.6s-2,1-3.5,1c-1,0-2-0.2-2.8-0.6s-1.5-0.9-1.9-1.5s-0.6-1.4-0.6-2.2
			h3.1c0,0.7,0.2,1.2,0.5,1.5s0.9,0.5,1.7,0.5c0.5,0,0.9-0.1,1.2-0.3S24.1,18.7,24.1,18.3z"/>
	</g>
</g>
</svg>
