<?xml version="1.0" encoding="utf-8"?>
<!-- Generator: Adobe Illustrator 19.1.0, SVG Export Plug-In . SVG Version: 6.00 Build 0)  -->
<svg version="1.1" id="Layer_1" xmlns="http://www.w3.org/2000/svg" xmlns:xlink="http://www.w3.org/1999/xlink" x="0px" y="0px"
	 viewBox="0 0 50 50" style="enable-background:new 0 0 50 50;" xml:space="preserve">
<style type="text/css">
	.st0{fill:#FFFFFF;}
	.st1{opacity:0.7;}
	.st2{fill:#6BBD46;}
	.st3{fill:#FF1D25;}
	.st4{fill:#FCB615;}
	.st5{fill:#FF0000;}
	.st6{fill:#541980;stroke:#241033;stroke-miterlimit:10;}
	.st7{fill:#5C329B;stroke:#241033;stroke-miterlimit:10;}
	.st8{fill:#644BB5;stroke:#241033;stroke-miterlimit:10;}
	.st9{fill:#6B64D0;stroke:#241033;stroke-miterlimit:10;}
	.st10{fill:#737DEA;stroke:#241033;stroke-miterlimit:10;}
	.st11{fill:#8D99EC;stroke:#241033;stroke-miterlimit:10;}
	.st12{fill:#A7B5EF;stroke:#241033;stroke-miterlimit:10;}
	.st13{fill:#C1D1F1;stroke:#241033;stroke-miterlimit:10;}
	.st14{fill:#DBEDF3;stroke:#241033;stroke-miterlimit:10;}
	.st15{fill:#430073;stroke:#0B050F;stroke-miterlimit:10;}
	.st16{fill:#3A1587;stroke:#161231;stroke-miterlimit:10;}
	.st17{fill:#302A9B;stroke:#211E52;stroke-miterlimit:10;}
	.st18{fill:#273EAE;stroke:#2B2B74;stroke-miterlimit:10;}
	.st19{fill:#1D53C2;stroke:#363795;stroke-miterlimit:10;}
	.st20{fill:#4D7ACE;stroke:#5257AC;stroke-miterlimit:10;}
	.st21{fill:#7CA0DB;stroke:#6F76C2;stroke-miterlimit:10;}
	.st22{fill:#ABC7E7;stroke:#8B96D9;stroke-miterlimit:10;}
	.st23{fill:#DBEDF3;stroke:#A7B5EF;stroke-miterlimit:10;}
	.st24{fill:#442094;stroke:#161231;stroke-miterlimit:10;}
	.st25{fill:#4440B5;stroke:#211E52;stroke-miterlimit:10;}
	.st26{fill:#4560D6;stroke:#2B2B74;stroke-miterlimit:10;}
	.st27{fill:#4580F7;stroke:#363795;stroke-miterlimit:10;}
	.st28{fill:#6A9BF6;stroke:#5257AC;stroke-miterlimit:10;}
	.st29{fill:#90B7F5;stroke:#6F76C2;stroke-miterlimit:10;}
	.st30{fill:#B5D2F4;stroke:#8B96D9;stroke-miterlimit:10;}
	.st31{fill:#541980;}
	.st32{fill:#241033;}
	.st33{fill:#5C329B;}
	.st34{fill:#644BB5;}
	.st35{fill:#6B64D0;}
	.st36{fill:#737DEA;}
	.st37{fill:#8D99EC;}
	.st38{fill:#A7B5EF;}
	.st39{fill:#C1D1F1;}
	.st40{fill:#DBEDF3;}
	.st41{fill:#541980;stroke:#0B050F;stroke-width:0.5;stroke-miterlimit:10;}
	.st42{fill:#644BB5;stroke:#211E52;stroke-width:0.5;stroke-miterlimit:10;}
	.st43{fill:#4580F7;stroke:#363795;stroke-width:0.5;stroke-miterlimit:10;}
	.st44{fill:#90B7F5;stroke:#6F76C2;stroke-width:0.5;stroke-miterlimit:10;}
	.st45{fill:#DBEDF3;stroke:#A7B5EF;stroke-width:0.5;stroke-miterlimit:10;}
	.st46{fill:#541980;stroke:#241033;stroke-width:0.75;stroke-miterlimit:10;}
	.st47{fill:#5C329B;stroke:#541980;stroke-width:0.75;stroke-miterlimit:10;}
	.st48{fill:#644BB5;stroke:#5C329B;stroke-width:0.75;stroke-miterlimit:10;}
	.st49{fill:#6B64D0;stroke:#644BB5;stroke-width:0.75;stroke-miterlimit:10;}
	.st50{fill:#737DEA;stroke:#6B64D0;stroke-width:0.75;stroke-miterlimit:10;}
	.st51{fill:#8D99EC;stroke:#737DEA;stroke-width:0.75;stroke-miterlimit:10;}
	.st52{fill:#A7B5EF;stroke:#737DEA;stroke-width:0.75;stroke-miterlimit:10;}
	.st53{fill:#C1D1F1;stroke:#8D99EC;stroke-width:0.75;stroke-miterlimit:10;}
	.st54{fill:#DBEDF3;stroke:#A7B5EF;stroke-width:0.75;stroke-miterlimit:10;}
	.st55{fill:#1F95D3;}
	.st56{fill:#B2C6C4;}
	.st57{opacity:0.3;fill:#EAEAEA;}
	.st58{fill:#006837;}
	.st59{fill:#A7A7A7;}
	.st60{clip-path:url(#SVGID_2_);fill:#FFFFFF;}
	.st61{clip-path:url(#SVGID_2_);}
	.st62{fill:#736357;}
	.st63{fill:#C0C0C0;stroke:#FFFFFF;stroke-width:3;stroke-miterlimit:10;}
	.st64{clip-path:url(#SVGID_2_);fill:#736357;}
	.st65{fill:#42210B;}
	.st66{fill:#DDC4A7;}
	.st67{fill:#603813;}
	.st68{fill:#FFFFFF;stroke:#42210B;stroke-width:2;stroke-miterlimit:10;}
	.st69{fill:#FF7BAC;}
	.st70{fill:#FFB300;}
	.st71{fill:#D69600;}
	.st72{fill:#E8A200;}
	.st73{fill:#A87600;}
	.st74{fill:#C78B00;}
	.st75{fill:#8C6200;}
	.st76{fill:#0C0742;stroke:#FFFFFF;stroke-width:2;stroke-miterlimit:10;}
	.st77{fill:#180D84;stroke:#FFFFFF;stroke-width:2;stroke-miterlimit:10;}
	.st78{fill:#494383;stroke:#FFFFFF;stroke-width:2;stroke-miterlimit:10;}
</style>
<path class="st78" d="M42.4,2H9.3C5.7,2,2,3.8,2,7.4v21.9C2,32.8,5.7,37,9.3,37h11.5l5.1,10.4L31,37h11.5c3.5,0,5.6-4.2,5.6-7.7V7.4
	C48,3.8,46,2,42.4,2z"/>
<g>
	<path class="st0" d="M25.5,26.9c-0.6,0-1.2,0.2-1.7,0.7c-0.5,0.5-0.7,1-0.7,1.7s0.2,1.2,0.7,1.7c0.5,0.5,1,0.7,1.7,0.7
		c0.7,0,1.2-0.2,1.7-0.7c0.5-0.5,0.7-1,0.7-1.7s-0.2-1.2-0.7-1.7C26.7,27.2,26.1,26.9,25.5,26.9z"/>
	<path class="st0" d="M25.5,7.9c-1.3,0-2.4,0.5-3.4,1.4c-0.9,0.9-1.4,2-1.4,3.4l2.4,9.5c0,0.7,0.2,1.2,0.7,1.7
		c0.5,0.5,1,0.7,1.7,0.7c0.6,0,1.2-0.2,1.7-0.7c0.5-0.5,0.7-1,0.7-1.7l2.4-9.5c0-1.3-0.5-2.4-1.4-3.4C27.9,8.4,26.8,7.9,25.5,7.9z"
		/>
</g>
</svg>
