<?xml version="1.0" encoding="utf-8"?>
<!-- Generator: Adobe Illustrator 19.1.0, SVG Export Plug-In . SVG Version: 6.00 Build 0)  -->
<svg version="1.1" xmlns="http://www.w3.org/2000/svg" xmlns:xlink="http://www.w3.org/1999/xlink" x="0px" y="0px"
	 viewBox="0 0 32 32" style="enable-background:new 0 0 32 32;" xml:space="preserve">
<style type="text/css">
	.st0{display:none;}
	.st1{display:inline;}
	.st2{fill:#0000FF;}
	.st3{fill:#009245;}
	.st4{fill:#3FA9F5;}
	.st5{fill:#7AC943;}
	.st6{display:inline;fill:#FFFFFF;stroke:#000000;stroke-width:3;stroke-miterlimit:10;}
	.st7{display:inline;fill:none;stroke:#000000;stroke-width:3;stroke-miterlimit:10;}
	.st8{fill:#964B00;}
	.st9{fill:#0048B9;}
	.st10{fill:#000077;}
	.st11{fill:#FFFFFF;}
	.st12{fill:#8D1844;}
	.st13{fill:none;}
	.st14{fill:#0000E2;}
	.st15{fill:#00FF00;}
	.st16{fill:#00B8FF;}
	.st17{fill:#006837;}
	.st18{fill:#C80000;}
	.st19{fill:#FF0000;}
	.st20{fill:#46B649;}
	.st21{fill:#8CC63F;}
	.st22{fill:#4D4D4D;}
	.st23{fill:#3366FF;}
	.st24{fill:#FF8000;}
	.st25{fill:none;stroke:#000000;stroke-width:2;stroke-miterlimit:10;}
	.st26{fill:none;stroke:#0048B9;stroke-width:3;stroke-miterlimit:10;}
</style>
<g id="Scrap" class="st0">
</g>
<g id="Icons">
	<g>
		<path class="st20" d="M15.9,30.3c-7.7,0-14-6.3-14-14v-0.6c0-7.7,6.3-14,14-14h0.6c7.7,0,14,6.3,14,14v0.6c0,7.7-6.3,14-14,14
			H15.9z"/>
		<g>
			<path d="M16.5,3.2c6.9,0,12.5,5.6,12.5,12.5v0.6c0,6.9-5.6,12.5-12.5,12.5h-0.6C9,28.8,3.4,23.2,3.4,16.3v-0.6
				C3.4,8.8,9,3.2,15.9,3.2H16.5 M16.5,0.2h-0.6c-8.5,0-15.5,7-15.5,15.5v0.6c0,8.5,7,15.5,15.5,15.5h0.6c8.5,0,15.5-7,15.5-15.5
				v-0.6C31.9,7.2,25,0.2,16.5,0.2L16.5,0.2z"/>
		</g>
	</g>
	<g>
		<path class="st19" d="M16.4,28.8h-0.5C9,28.8,3.4,23.1,3.4,16.2v-0.5C3.4,8.9,9,3.3,15.9,3.3h0.5"/>
	</g>
	<g>
		<path class="st11" d="M15.5,17.7h-1.9v5h-3.4V8.5h5.6c1.7,0,3,0.4,4,1.1c1,0.7,1.4,1.8,1.4,3.2c0,1-0.2,1.8-0.6,2.5
			s-1,1.2-1.9,1.6l3,5.7v0.1h-3.7L15.5,17.7z M13.7,15h2.2c0.7,0,1.1-0.2,1.5-0.5c0.3-0.3,0.5-0.8,0.5-1.4c0-0.6-0.2-1.1-0.5-1.4
			s-0.8-0.5-1.5-0.5h-2.2V15z"/>
	</g>
</g>
</svg>
