<?xml version="1.0" encoding="utf-8"?>
<!-- Generator: Adobe Illustrator 19.1.0, SVG Export Plug-In . SVG Version: 6.00 Build 0)  -->
<svg version="1.1" xmlns="http://www.w3.org/2000/svg" xmlns:xlink="http://www.w3.org/1999/xlink" x="0px" y="0px"
	 viewBox="0 0 50 50" style="enable-background:new 0 0 50 50;" xml:space="preserve">
<style type="text/css">
	.st0{display:none;}
	.st1{display:inline;}
	.st2{fill:#0000FF;}
	.st3{fill:#009245;}
	.st4{fill:#3FA9F5;}
	.st5{fill:#7AC943;}
	.st6{fill:#FFFFFF;}
	.st7{fill:#46B649;}
	.st8{fill:#FF0000;}
	.st9{fill:#0048B9;}
	.st10{fill:#000077;}
	.st11{fill:#8D1844;}
	.st12{fill:none;}
	.st13{fill:#0000E2;}
	.st14{fill:#00FF00;}
	.st15{fill:#00B8FF;}
	.st16{fill:#006837;}
	.st17{fill:#C80000;}
	.st18{fill:#964B00;}
	.st19{fill:#8CC63F;}
	.st20{fill:#666666;}
	.st21{fill:#B4B4B4;}
	.st22{fill:#3366FF;}
	.st23{fill:#FF8000;}
	.st24{fill:none;stroke:#000000;stroke-width:2;stroke-miterlimit:10;}
	.st25{fill:none;stroke:#0048B9;stroke-width:3;stroke-miterlimit:10;}
	.st26{fill:none;stroke:#FFFFFF;stroke-width:3;stroke-miterlimit:10;}
	.st27{fill:#454545;}
	.st28{fill:#727272;}
	.st29{fill:#FCB615;stroke:#000000;stroke-miterlimit:10;}
	.st30{fill:#46B649;stroke:#000000;stroke-miterlimit:10;}
	.st31{fill:#FF0000;stroke:#000000;stroke-miterlimit:10;}
	.st32{fill:#3366FF;stroke:#000000;stroke-miterlimit:10;}
	.st33{fill:#FCB615;}
	.st34{fill:#FFFF00;}
	.st35{fill:#919191;}
	.st36{fill:#FFFBCA;}
	.st37{fill:#BA6728;}
	.st38{fill:#DBEDF3;}
	.st39{fill:#A7B5EF;}
	.st40{fill:none;stroke:#000000;stroke-width:3;stroke-miterlimit:10;}
	.st41{fill:none;stroke:#000000;stroke-width:4;stroke-miterlimit:10;}
	.st42{fill:#FFFFFF;stroke:#000000;stroke-width:4;stroke-miterlimit:10;}
</style>
<g id="Scrap">
</g>
<g id="Icons">
</g>
<g id="Layer_3">
	<g>
		<g>
			<path class="st8" d="M24.9,47.9h0.6c12.6,0,23.2-9.6,23.2-22.3v0H24.9V47.9z"/>
			<path class="st7" d="M25.6,2.2h-0.3C12.6,2.2,1.8,12.5,1.8,25.1V26h23.8V2.2z"/>
			<path class="st33" d="M1,25v-0.6C1,37.1,12.9,48,25.6,48H25V25H1z"/>
			<path class="st9" d="M48,26v-1.4C48,11.9,38.1,2,25.4,2H23v24H48z"/>
		</g>
		<g>
			<line class="st41" x1="25" y1="3" x2="25" y2="48"/>
			<line class="st41" x1="2" y1="26" x2="48" y2="26"/>
		</g>
		<g>
			<g>
				<path d="M25.7,3c11.9,0,21.5,9.7,21.5,21.5v1c0,11.9-9.7,21.5-21.5,21.5h-1C12.9,47,3.2,37.3,3.2,25.5v-1
					C3.2,12.7,12.9,3,24.7,3H25.7 M25.7,0h-1C11.3,0,0.2,11,0.2,24.5v1C0.2,39,11.3,50,24.7,50h1c13.5,0,24.5-11,24.5-24.5v-1
					C50.2,11,39.2,0,25.7,0L25.7,0z"/>
			</g>
		</g>
		<g>
			<path class="st42" d="M13.8,37.6H8l5-28.4h5.8L13.8,37.6z"/>
			<path class="st42" d="M31.7,27.2H27l-1.9,10.4h-5.8l5-28.4l9.6,0c3.2,0,5.7,0.7,7.4,2.2s2.5,3.5,2.3,6.2
				c-0.3,3.9-2.4,6.6-6.4,8.1l4.1,11.5v0.3h-6.2L31.7,27.2z M27.8,22.5l4.3,0c1.5,0,2.8-0.4,3.8-1.2c1-0.8,1.6-1.9,1.8-3.2
				c0.2-1.3,0-2.3-0.6-3c-0.6-0.7-1.5-1.1-2.8-1.2l-5,0L27.8,22.5z"/>
		</g>
		<g>
			<path class="st6" d="M13.8,37.6H8l5-28.4h5.8L13.8,37.6z"/>
			<path class="st6" d="M31.7,27.2H27l-1.9,10.4h-5.8l5-28.4l9.6,0c3.2,0,5.7,0.7,7.4,2.2s2.5,3.5,2.3,6.2c-0.3,3.9-2.4,6.6-6.4,8.1
				l4.1,11.5v0.3h-6.2L31.7,27.2z M27.8,22.5l4.3,0c1.5,0,2.8-0.4,3.8-1.2c1-0.8,1.6-1.9,1.8-3.2c0.2-1.3,0-2.3-0.6-3
				c-0.6-0.7-1.5-1.1-2.8-1.2l-5,0L27.8,22.5z"/>
		</g>
	</g>
</g>
</svg>
