<?xml version="1.0" encoding="utf-8"?>
<!-- Generator: Adobe Illustrator 19.1.0, SVG Export Plug-In . SVG Version: 6.00 Build 0)  -->
<svg version="1.1" xmlns="http://www.w3.org/2000/svg" xmlns:xlink="http://www.w3.org/1999/xlink" x="0px" y="0px"
	 viewBox="0 0 25 50" style="enable-background:new 0 0 25 50;" xml:space="preserve">
<style type="text/css">
	.st0{display:none;}
	.st1{display:inline;}
	.st2{fill:#0000FF;}
	.st3{fill:#009245;}
	.st4{fill:#3FA9F5;}
	.st5{fill:#7AC943;}
	.st6{fill:#0000FF;fill-opacity:0.4;stroke:#0000FF;stroke-miterlimit:10;}
	.st7{fill:#FFFFFF;}
	.st8{fill:#FCB615;stroke:#000000;stroke-miterlimit:10;}
	.st9{fill:#46B649;stroke:#000000;stroke-miterlimit:10;}
	.st10{fill:#FF0000;stroke:#000000;stroke-miterlimit:10;}
	.st11{fill:#3366FF;stroke:#000000;stroke-miterlimit:10;}
	.st12{opacity:0.25;fill:#0000FF;}
	.st13{opacity:0.25;fill:#00FF00;}
	.st14{fill:#00FF00;}
	.st15{opacity:0.25;fill:#F7931E;}
	.st16{fill:#F7931E;}
	.st17{opacity:0.25;fill:#FF0000;}
	.st18{fill:#FF0000;}
	.st19{opacity:0.25;fill:#FCEE21;}
	.st20{fill:#FCB615;}
	.st21{fill:#FFFF00;}
	.st22{fill:#919191;}
	.st23{fill:#FFFBCA;}
	.st24{fill:#BA6728;}
	.st25{fill:#7C0912;}
	.st26{opacity:0.5;fill:#FFFBCA;}
	.st27{opacity:0.8;fill:#BA6728;}
	.st28{fill:#C3E8F3;}
	.st29{fill:#1F95D3;}
	.st30{opacity:0.5;fill:#C3E8F3;}
	.st31{opacity:0.8;fill:#1F95D3;}
	.st32{fill:#C0C0C0;}
	.st33{fill:#516B6F;}
	.st34{opacity:0.5;fill:#C0C0C0;}
	.st35{opacity:0.8;fill:#516B6F;}
	.st36{fill:#DBEDF3;}
	.st37{fill:#A7B5EF;}
	.st38{fill:#8D1844;}
	.st39{fill:#FF1D25;}
	.st40{fill:#37494B;}
	.st41{fill:#009245;fill-opacity:0.4;stroke:#009245;stroke-miterlimit:10;}
	.st42{fill:#F47B20;fill-opacity:0.4;stroke:#F47B20;stroke-miterlimit:10;}
	.st43{fill:#F47B20;}
	.st44{fill:#FCEE21;fill-opacity:0.4;stroke:#FCEE21;stroke-miterlimit:10;}
	.st45{fill:#FFFF00;stroke:#7C0912;stroke-miterlimit:10;}
</style>
<g id="Scrap">
</g>
<g id="Icons">
	<g>
		<g>
			<path class="st21" d="M15.6,21l7,0.1L4.3,44.4l5-16.2l-7-0.1L20.8,5.6L15.6,21z"/>
			<path class="st25" d="M20.8,5.6L15.6,21l7,0.1L4.3,44.4l5-16.2l-7-0.1L20.8,5.6 M23.6,0.7l-3.5,4.3L1.6,27.6l-1.3,1.6l2.1,0
				l5.6,0L3.4,44.1l-1.6,5.2L5.1,45l18.3-23.4l1.3-1.6l-2,0L17,20l4.8-14.1L23.6,0.7L23.6,0.7z"/>
		</g>
	</g>
</g>
<g id="Layer_3">
</g>
</svg>
