<?xml version="1.0" encoding="utf-8"?>
<!-- Generator: Adobe Illustrator 19.1.0, SVG Export Plug-In . SVG Version: 6.00 Build 0)  -->
<svg version="1.1" xmlns="http://www.w3.org/2000/svg" xmlns:xlink="http://www.w3.org/1999/xlink" x="0px" y="0px"
	 viewBox="0 0 25 26" style="enable-background:new 0 0 25 26;" xml:space="preserve">
<style type="text/css">
	.st0{display:none;}
	.st1{display:inline;}
	.st2{fill:#0000FF;}
	.st3{fill:#009245;}
	.st4{fill:#3FA9F5;}
	.st5{fill:#7AC943;}
	.st6{fill:#0000FF;fill-opacity:0.4;stroke:#0000FF;stroke-miterlimit:10;}
	.st7{fill:#FFFFFF;}
	.st8{fill:#FCB615;stroke:#000000;stroke-miterlimit:10;}
	.st9{fill:#46B649;stroke:#000000;stroke-miterlimit:10;}
	.st10{fill:#FF0000;stroke:#000000;stroke-miterlimit:10;}
	.st11{fill:#3366FF;stroke:#000000;stroke-miterlimit:10;}
	.st12{opacity:0.25;fill:#0000FF;}
	.st13{opacity:0.25;fill:#00FF00;}
	.st14{fill:#00FF00;}
	.st15{opacity:0.25;fill:#F7931E;}
	.st16{fill:#F7931E;}
	.st17{opacity:0.25;fill:#FF0000;}
	.st18{fill:#FF0000;}
	.st19{opacity:0.25;fill:#FCEE21;}
	.st20{fill:#FCB615;}
	.st21{fill:#FFFF00;}
	.st22{fill:#919191;}
	.st23{fill:#FFFBCA;}
	.st24{fill:#BA6728;}
	.st25{fill:#7C0912;}
	.st26{opacity:0.5;fill:#FFFBCA;}
	.st27{opacity:0.8;fill:#BA6728;}
	.st28{fill:#C3E8F3;}
	.st29{fill:#1F95D3;}
	.st30{opacity:0.5;fill:#C3E8F3;}
	.st31{opacity:0.8;fill:#1F95D3;}
	.st32{fill:#C0C0C0;}
	.st33{fill:#516B6F;}
	.st34{opacity:0.5;fill:#C0C0C0;}
	.st35{opacity:0.8;fill:#516B6F;}
	.st36{fill:#DBEDF3;}
	.st37{fill:#A7B5EF;}
	.st38{fill:#8D1844;}
	.st39{fill:#FF1D25;}
	.st40{fill:#37494B;}
	.st41{fill:#009245;fill-opacity:0.4;stroke:#009245;stroke-miterlimit:10;}
	.st42{fill:#F47B20;fill-opacity:0.4;stroke:#F47B20;stroke-miterlimit:10;}
	.st43{fill:#F47B20;}
	.st44{fill:#FCEE21;fill-opacity:0.4;stroke:#FCEE21;stroke-miterlimit:10;}
	.st45{fill:#FFFF00;stroke:#7C0912;stroke-miterlimit:10;}
</style>
<g id="Scrap">
</g>
<g id="Icons">
	<g>
		<path class="st45" d="M12.5,1.3c1.6,0,3.1,0.4,4.4,1.2c1.3,0.8,2.4,1.9,3.2,3.3c0.8,1.4,1.2,2.8,1.2,4.4c0,1.6-0.5,3.3-1.4,5.3
			c-0.9,1.5-2,3-3.2,4.6c-1.2,1.6-2.2,2.8-2.9,3.7L12.6,25c-0.1-0.1-0.3-0.3-0.5-0.5c-0.2-0.2-0.7-0.7-1.3-1.4
			c-0.6-0.7-1.3-1.4-1.9-2.1c-0.6-0.7-1.3-1.6-2-2.6c-0.7-1-1.4-2-1.9-3c-0.8-1.8-1.2-3.5-1.2-5.1C3.8,9.2,4,8,4.5,6.9
			C4.9,5.8,5.5,4.8,6.3,4C7.1,3.2,8,2.5,9.1,2S11.3,1.3,12.5,1.3z M15.8,6.6c-0.9-0.9-1.9-1.3-3.2-1.3s-2.3,0.4-3.2,1.3
			C8.5,7.5,8.1,8.6,8.1,9.8s0.4,2.3,1.3,3.2c0.9,0.9,1.9,1.3,3.2,1.3s2.3-0.4,3.2-1.3c0.9-0.9,1.3-1.9,1.3-3.2S16.6,7.5,15.8,6.6z"
			/>
	</g>
</g>
<g id="Layer_3">
</g>
</svg>
