<?xml version="1.0" encoding="utf-8"?>
<!-- Generator: Adobe Illustrator 19.1.0, SVG Export Plug-In . SVG Version: 6.00 Build 0)  -->
<svg version="1.1" xmlns="http://www.w3.org/2000/svg" xmlns:xlink="http://www.w3.org/1999/xlink" x="0px" y="0px"
	 viewBox="0 0 32 32" style="enable-background:new 0 0 32 32;" xml:space="preserve">
<style type="text/css">
	.st0{display:none;}
	.st1{display:inline;}
	.st2{fill:#0000FF;}
	.st3{fill:#009245;}
	.st4{fill:#3FA9F5;}
	.st5{fill:#7AC943;}
	.st6{fill:#FFFFFF;}
	.st7{fill:#46B649;}
	.st8{fill:#FF0000;}
	.st9{fill:#0048B9;}
	.st10{fill:#000077;}
	.st11{fill:none;}
	.st12{fill:#0000E2;}
	.st13{fill:#00FF00;}
	.st14{fill:#00B8FF;}
	.st15{fill:#006837;}
	.st16{fill:#C80000;}
	.st17{fill:#964B00;}
	.st18{fill:#8CC63F;}
	.st19{fill:#666666;}
	.st20{fill:#B4B4B4;}
	.st21{fill:#3366FF;}
	.st22{fill:#FF8000;}
	.st23{fill:#B87E44;}
	.st24{fill:none;stroke:#000000;stroke-width:2;stroke-miterlimit:10;}
	.st25{fill:none;stroke:#FFFFFF;stroke-width:3;stroke-miterlimit:10;}
	.st26{fill:#454545;}
	.st27{fill:#727272;}
	.st28{fill:#FCB615;stroke:#000000;stroke-miterlimit:10;}
	.st29{fill:#46B649;stroke:#000000;stroke-miterlimit:10;}
	.st30{fill:#FF0000;stroke:#000000;stroke-miterlimit:10;}
	.st31{fill:#3366FF;stroke:#000000;stroke-miterlimit:10;}
	.st32{fill:#FCB615;}
	.st33{fill:#FFFF00;}
	.st34{fill:#919191;}
	.st35{fill:#FFFBCA;}
	.st36{fill:#BA6728;}
	.st37{fill:#DBEDF3;}
	.st38{fill:#A7B5EF;}
	.st39{fill:none;stroke:#000000;stroke-width:3;stroke-miterlimit:10;}
	.st40{fill:#42210B;}
	.st41{fill:#FCEE21;}
	.st42{fill:none;stroke:#000000;stroke-width:4;stroke-miterlimit:10;}
	.st43{fill:#FFFFFF;stroke:#000000;stroke-width:4;stroke-miterlimit:10;}
	.st44{fill:#A7A7A7;}
</style>
<g id="Scrap">
</g>
<g id="Icons">
	<g>
		<path class="st23" d="M15.7,30.8c-8,0-14.5-6.5-14.5-14.5v-0.6c0-8,6.5-14.5,14.5-14.5h0.6c8,0,14.5,6.5,14.5,14.5v0.6
			c0,8-6.5,14.5-14.5,14.5H15.7z"/>
		<g>
			<path d="M16.3,2.2c7.4,0,13.5,6,13.5,13.5v0.6c0,7.4-6,13.5-13.5,13.5h-0.6c-7.4,0-13.5-6-13.5-13.5v-0.6c0-7.4,6-13.5,13.5-13.5
				H16.3 M16.3,0.2h-0.6c-8.5,0-15.5,7-15.5,15.5v0.6c0,8.5,7,15.5,15.5,15.5h0.6c8.5,0,15.5-7,15.5-15.5v-0.6
				C31.8,7.2,24.8,0.2,16.3,0.2L16.3,0.2z"/>
		</g>
	</g>
	<g>
		<path class="st6" d="M16.2,11.1h-4.1l-2,11.6H7.8l2-11.6H5.8l0.3-1.9h10.4L16.2,11.1z"/>
		<path class="st6" d="M23.3,19.2c0.1-0.9-0.3-1.6-1.5-2l-0.8-0.3c-1.4-0.5-2.4-1.1-3-1.7c-0.6-0.7-0.9-1.4-0.8-2.3
			c0-0.8,0.3-1.4,0.8-2c0.5-0.6,1.1-1,1.9-1.3C20.8,9.1,21.6,9,22.5,9c0.8,0,1.6,0.2,2.2,0.6c0.7,0.3,1.2,0.8,1.5,1.5
			c0.3,0.6,0.5,1.3,0.5,2.1l-2.3,0c0-0.7-0.1-1.2-0.5-1.6c-0.4-0.4-0.9-0.6-1.6-0.6c-0.7,0-1.3,0.2-1.8,0.5
			c-0.5,0.4-0.8,0.8-0.9,1.4c-0.1,0.8,0.4,1.4,1.6,1.8l0.7,0.2c1.4,0.5,2.4,1.1,3,1.8c0.6,0.7,0.8,1.5,0.7,2.4
			c-0.1,0.8-0.3,1.4-0.8,2c-0.4,0.6-1,1-1.8,1.3c-0.8,0.3-1.6,0.5-2.6,0.4c-0.9,0-1.7-0.2-2.4-0.6c-0.7-0.4-1.3-0.9-1.7-1.5
			c-0.4-0.6-0.6-1.4-0.5-2.2l2.3,0c0,0.8,0.1,1.4,0.6,1.8c0.4,0.4,1,0.6,1.8,0.6c0.7,0,1.4-0.1,1.9-0.5
			C22.9,20.2,23.2,19.8,23.3,19.2z"/>
	</g>
</g>
<g id="Layer_3">
</g>
</svg>
