<?xml version="1.0" encoding="utf-8"?>
<!-- Generator: Adobe Illustrator 19.1.0, SVG Export Plug-In . SVG Version: 6.00 Build 0)  -->
<svg version="1.1" xmlns="http://www.w3.org/2000/svg" xmlns:xlink="http://www.w3.org/1999/xlink" x="0px" y="0px"
	 viewBox="0 0 32 32" style="enable-background:new 0 0 32 32;" xml:space="preserve">
<style type="text/css">
	.st0{display:none;}
	.st1{display:inline;}
	.st2{fill:#0000FF;}
	.st3{fill:#009245;}
	.st4{fill:#3FA9F5;}
	.st5{fill:#7AC943;}
	.st6{fill:#46B649;}
	.st7{fill:#FF0000;}
	.st8{fill:#0048B9;}
	.st9{fill:#000077;}
	.st10{fill:#FFFFFF;}
	.st11{fill:#8D1844;}
	.st12{fill:none;}
	.st13{fill:#0000E2;}
	.st14{fill:#00FF00;}
	.st15{fill:#00B8FF;}
	.st16{fill:#006837;}
	.st17{fill:#C80000;}
	.st18{fill:#964B00;}
	.st19{fill:#8CC63F;}
	.st20{fill:#4D4D4D;}
	.st21{fill:#3366FF;}
	.st22{fill:#FF8000;}
	.st23{fill:none;stroke:#000000;stroke-width:2;stroke-miterlimit:10;}
	.st24{fill:none;stroke:#0048B9;stroke-width:3;stroke-miterlimit:10;}
	.st25{fill:none;stroke:#FFFFFF;stroke-width:3;stroke-miterlimit:10;}
	.st26{fill:#454545;}
	.st27{fill:#727272;}
	.st28{fill:#FCB615;stroke:#000000;stroke-miterlimit:10;}
	.st29{fill:#46B649;stroke:#000000;stroke-miterlimit:10;}
	.st30{fill:#FF0000;stroke:#000000;stroke-miterlimit:10;}
	.st31{fill:#3366FF;stroke:#000000;stroke-miterlimit:10;}
	.st32{fill:#FCB615;}
	.st33{fill:#FFFF00;}
	.st34{fill:#919191;}
	.st35{fill:#FFFBCA;}
	.st36{fill:#BA6728;}
	.st37{fill:#DBEDF3;}
	.st38{fill:#A7B5EF;}
	.st39{fill:none;stroke:#000000;stroke-width:4;stroke-miterlimit:10;}
	.st40{fill:#FFFFFF;stroke:#000000;stroke-width:4;stroke-miterlimit:10;}
</style>
<g id="Scrap">
</g>
<g id="Icons">
	<g>
		<path class="st10" d="M15.5,30.3c-7.7,0-14-6.3-14-14v-0.6c0-7.7,6.3-14,14-14h0.6c7.7,0,14,6.3,14,14v0.6c0,7.7-6.3,14-14,14
			H15.5z"/>
		<path d="M16.1,3.2c6.9,0,12.5,5.6,12.5,12.5v0.6c0,6.9-5.6,12.5-12.5,12.5h-0.6C8.6,28.8,3,23.2,3,16.3v-0.6
			C3,8.8,8.6,3.2,15.5,3.2H16.1 M16.1,0.2h-0.6C7,0.2,0,7.2,0,15.7v0.6c0,8.5,7,15.5,15.5,15.5h0.6c8.5,0,15.5-7,15.5-15.5v-0.6
			C31.5,7.2,24.6,0.2,16.1,0.2L16.1,0.2z"/>
	</g>
	<g>
		<g>
			<path d="M15.5,29.1c-7.1,0-12.8-5.8-12.8-12.8v-0.6c0-7.1,5.8-12.8,12.8-12.8H16c7.1,0,12.8,5.8,12.8,12.8v0.6
				c0,7.1-5.8,12.8-12.8,12.8H15.5z"/>
			<path class="st10" d="M16,4.4c6.3,0,11.3,5.1,11.3,11.3v0.6c0,6.3-5.1,11.3-11.3,11.3h-0.6c-6.3,0-11.3-5.1-11.3-11.3v-0.6
				c0-6.3,5.1-11.3,11.3-11.3H16 M16,1.4h-0.6C7.6,1.4,1.1,7.8,1.1,15.7v0.6c0,7.9,6.5,14.3,14.3,14.3H16c7.9,0,14.3-6.5,14.3-14.3
				v-0.6C30.4,7.8,23.9,1.4,16,1.4L16,1.4z"/>
		</g>
		<g>
			<line class="st25" x1="15.5" y1="15" x2="15.5" y2="30"/>
			<line class="st25" x1="15.2" y1="16" x2="27" y2="9.1"/>
			<line class="st25" x1="15.6" y1="15.8" x2="4.1" y2="9.2"/>
		</g>
	</g>
</g>
<g id="Layer_3">
</g>
</svg>
