<?xml version="1.0" encoding="utf-8"?>
<!-- Generator: Adobe Illustrator 19.1.0, SVG Export Plug-In . SVG Version: 6.00 Build 0)  -->
<svg version="1.1" xmlns="http://www.w3.org/2000/svg" xmlns:xlink="http://www.w3.org/1999/xlink" x="0px" y="0px"
	 viewBox="0 0 54 28.1" style="enable-background:new 0 0 54 28.1;" xml:space="preserve">
<style type="text/css">
	.st0{display:none;}
	.st1{display:inline;}
	.st2{fill:#0000FF;}
	.st3{fill:#009245;}
	.st4{fill:#3FA9F5;}
	.st5{fill:#7AC943;}
	.st6{fill:#805A00;}
	.st7{fill:#FFFFFF;}
	.st8{fill:#E8A200;}
	.st9{fill:#42210B;}
	.st10{fill:#FFB300;}
	.st11{fill:#A87600;}
	.st12{fill:#C78B00;}
</style>
<g id="Scrap">
</g>
<g id="Icons">
</g>
<g id="Layer_3">
	<g>
		<path class="st12" d="M13.4,0.8l29.6,0c0.3,0,0.5,0.1,0.7,0.3C43.9,1.3,44,1.5,44,1.8v24.5c0,0.3-0.1,0.5-0.3,0.7
			c-0.2,0.2-0.4,0.3-0.7,0.3H13.4L0.9,14.7c-0.2-0.2-0.3-0.4-0.3-0.7c0-0.3,0.1-0.5,0.3-0.7L13.4,0.8z M15.9,11.3
			c-0.7-0.7-1.6-1.1-2.7-1.1c-1,0-1.9,0.4-2.7,1.1C9.9,12,9.5,12.9,9.5,14c0,1,0.4,1.9,1.1,2.7s1.6,1.1,2.7,1.1c1,0,1.9-0.4,2.7-1.1
			C16.7,15.9,17,15,17,14C17,13,16.7,12.1,15.9,11.3z"/>
	</g>
	<g>
		<path class="st7" d="M22.5,19.5v-8.9h-3.2V8.8h8.5v1.8h-3.2v8.9H22.5z"/>
		<path class="st7" d="M28.1,19.5l3.7-5.6l-3.3-5.1h2.5l2.2,3.4l2.1-3.4h2.5L34.4,14l3.7,5.5h-2.6L33,15.8l-2.4,3.7H28.1z"/>
	</g>
</g>
</svg>
