<?xml version="1.0" encoding="utf-8"?>
<!-- Generator: Adobe Illustrator 19.1.0, SVG Export Plug-In . SVG Version: 6.00 Build 0)  -->
<svg version="1.1" xmlns="http://www.w3.org/2000/svg" xmlns:xlink="http://www.w3.org/1999/xlink" x="0px" y="0px"
	 viewBox="0 0 54 28.1" style="enable-background:new 0 0 54 28.1;" xml:space="preserve">
<style type="text/css">
	.st0{display:none;}
	.st1{display:inline;}
	.st2{fill:#0000FF;}
	.st3{fill:#009245;}
	.st4{fill:#3FA9F5;}
	.st5{fill:#7AC943;}
	.st6{fill:#805A00;}
	.st7{fill:#FFFFFF;}
	.st8{fill:#E8A200;}
	.st9{fill:#42210B;}
	.st10{fill:#FFB300;}
	.st11{fill:#A87600;}
	.st12{fill:#C78B00;}
</style>
<g id="Scrap">
</g>
<g id="Icons">
</g>
<g id="Layer_3">
	<g>
		<path class="st10" d="M13.4,0.8l39.6,0c0.3,0,0.5,0.1,0.7,0.3C53.9,1.3,54,1.5,54,1.8v24.5c0,0.3-0.1,0.5-0.3,0.7
			c-0.2,0.2-0.4,0.3-0.7,0.3H13.4L0.8,14.7c-0.2-0.2-0.3-0.4-0.3-0.7c0-0.3,0.1-0.5,0.3-0.7L13.4,0.8z M15.9,11.3
			c-0.7-0.7-1.6-1.1-2.7-1.1c-1,0-1.9,0.4-2.7,1.1C9.9,12,9.5,12.9,9.5,14c0,1,0.4,1.9,1.1,2.7s1.6,1.1,2.7,1.1c1,0,1.9-0.4,2.7-1.1
			C16.7,15.9,17,15,17,14C17,13,16.7,12.1,15.9,11.3z"/>
	</g>
	<g>
		<path class="st9" d="M21.1,19.5V8.8h2.1l4.4,7.2V8.8h2v10.7h-2.2l-4.3-7v7H21.1z"/>
		<path class="st9" d="M31.9,19.5V8.9H34v8.8h5.4v1.8H31.9z"/>
		<path class="st9" d="M40.3,16l2.1-0.2c0.1,0.7,0.4,1.2,0.8,1.6c0.4,0.3,0.9,0.5,1.6,0.5c0.7,0,1.2-0.1,1.6-0.4
			c0.4-0.3,0.5-0.6,0.5-1c0-0.3-0.1-0.5-0.2-0.6c-0.1-0.2-0.4-0.3-0.8-0.5c-0.3-0.1-0.8-0.2-1.7-0.5c-1.2-0.3-2-0.6-2.4-1.1
			c-0.7-0.6-1-1.3-1-2.2c0-0.5,0.2-1.1,0.5-1.5c0.3-0.5,0.8-0.8,1.3-1.1c0.6-0.2,1.3-0.4,2.1-0.4c1.3,0,2.4,0.3,3,0.9
			c0.7,0.6,1,1.4,1.1,2.4l-2.2,0.1c-0.1-0.6-0.3-0.9-0.6-1.2c-0.3-0.2-0.8-0.4-1.4-0.4c-0.6,0-1.1,0.1-1.5,0.4
			c-0.2,0.2-0.3,0.4-0.3,0.7c0,0.3,0.1,0.5,0.3,0.7c0.3,0.2,0.9,0.5,2,0.7s1.8,0.5,2.3,0.8c0.5,0.3,0.9,0.6,1.2,1.1
			c0.3,0.5,0.4,1,0.4,1.7c0,0.6-0.2,1.2-0.5,1.7S47.7,19,47,19.3c-0.6,0.3-1.4,0.4-2.3,0.4c-1.4,0-2.4-0.3-3.1-0.9
			C40.8,18.1,40.4,17.2,40.3,16z"/>
	</g>
</g>
</svg>
